<?xml version="1.0" encoding="utf-8"?>
<svg xmlns="http://www.w3.org/2000/svg" width="677" height="820" viewBox="0 0 677 820" fill="none">
<g clip-path="url(#clip0_313_5481)">
<mask id="mask0_313_5481" style="mask-type:alpha" maskUnits="userSpaceOnUse" x="0" y="0" width="677" height="820">
<path d="M677 0H0V820H677V0Z" fill="#D9D9D9"/>
</mask>
<g mask="url(#mask0_313_5481)">
<path d="M-628 820V-440.582C-628 -672.236 -440.236 -860 -208.582 -860.001H842C957.972 -860.001 1052 -765.973 1052 -650V-230.727C1052 -114.464 841.274 -76.5001 841.274 -76.5001H839.674C723.411 -76.936 628.948 17.2372 628.948 133.5V190C628.948 305.972 534.921 400 418.948 400C302.976 400 208.948 494.028 208.948 610.001C208.948 725.973 114.921 820 -1.05176 820H-418C-533.972 820 -628 820 -628 820Z" fill="white"/>
</g>
</g>
<defs>
<clipPath id="clip0_313_5481">
<rect width="677" height="820" fill="white"/>
</clipPath>
</defs>
</svg>